<svg width="995" height="237" viewBox="0 0 995 237" fill="none" xmlns="http://www.w3.org/2000/svg">
<path fill-rule="evenodd" clip-rule="evenodd" d="M237 237H0V0H237V237Z" fill="#128CDB"/>
<path fill-rule="evenodd" clip-rule="evenodd" d="M96.8717 100.99C88.6089 102.47 82.4426 109.776 82.4426 118.407C82.4426 127.224 88.6089 134.715 96.8717 136.01L92.3703 144.456L100.972 139.956C100.972 139.956 103.593 154.568 118.423 154.568C127.21 154.568 134.517 148.371 136.027 140.141L144.629 144.456L140.128 136.01C148.391 134.499 154.557 127.193 154.557 118.407C154.557 109.776 148.576 102.47 139.943 100.99L144.629 92.3583L136.027 96.859C133.962 88.4124 127.395 82.4319 118.423 82.4319C103.809 82.4319 100.972 96.859 100.972 96.859L92.3703 92.3583L96.8717 100.99V100.99ZM131.526 131.509C131.526 140.141 130.385 149.327 118.423 149.327C109.235 149.327 103.038 140.141 105.474 131.509C96.8717 133.944 87.684 127.779 87.684 118.407C87.684 109.036 97.0567 103.055 105.474 105.491C103.038 96.8591 109.235 87.6725 118.423 87.6725C127.765 87.6725 133.962 96.8591 131.526 105.491C139.943 103.055 149.316 109.036 149.316 118.407C149.316 127.779 140.128 133.944 131.526 131.509Z" fill="white"/>
<path fill-rule="evenodd" clip-rule="evenodd" d="M108.865 108.851L118.423 113.907L128.166 108.851L122.893 118.408L128.166 128.149L118.423 122.908L108.865 128.149L113.922 118.408L108.865 108.851Z" fill="white"/>
<path fill-rule="evenodd" clip-rule="evenodd" d="M181.935 99.4794C180.794 98.1846 178.729 98.1846 177.619 99.4794L162.82 114.276L158.503 118.407L157.578 119.517C157.393 121.583 156.993 123.463 156.253 125.158L158.318 127.224L162.82 122.723L177.619 137.52C178.729 138.63 180.794 138.63 181.935 137.52C183.045 136.38 183.045 134.53 181.935 133.204L167.136 118.407L181.935 103.61C183.045 102.47 183.045 100.62 181.935 99.4794V99.4794Z" fill="white"/>
<path fill-rule="evenodd" clip-rule="evenodd" d="M95.176 99.4795L92.9253 95.3486L92.0004 96.3043L87.499 100.805L88.609 102.1C90.6746 100.805 92.9253 99.8494 95.176 99.4795Z" fill="white"/>
<path fill-rule="evenodd" clip-rule="evenodd" d="M136.212 82.8018L159.428 59.5889C160.569 58.4483 160.569 56.5678 159.428 55.458C158.133 54.1325 156.252 54.1325 155.143 55.458L131.896 78.486L136.212 82.8018V82.8018Z" fill="white"/>
<path fill-rule="evenodd" clip-rule="evenodd" d="M89.7496 94.0537L91.4145 92.3582L90.3045 90.2928L92.3702 91.4334L94.0351 89.7379L59.7507 55.458C58.6408 54.3174 56.7601 54.3174 55.4652 55.458C54.3244 56.7527 54.3244 58.6332 55.4652 59.7738L89.7496 94.0537V94.0537Z" fill="white"/>
<path fill-rule="evenodd" clip-rule="evenodd" d="M112.041 160.733L107.354 156.047L81.8568 181.541C80.5619 182.651 78.6812 182.651 77.5713 181.541C76.4305 180.401 76.4305 178.551 77.5713 177.226L103.038 151.762L96.2858 145.011L59.7508 181.356C58.6409 182.651 56.7602 182.651 55.4652 181.356C54.3245 180.216 54.3245 178.366 55.4652 177.226L92.0003 140.695L85.2483 133.759L59.5658 159.438C58.4559 160.548 56.5752 160.548 55.4652 159.438C54.1395 158.298 54.1395 156.232 55.4652 155.122L80.9319 129.659L74.1798 122.723L59.3808 137.52C58.0859 138.63 56.2052 138.63 55.0644 137.52C53.7695 136.38 53.7695 134.53 55.0644 133.204L80.9319 107.34L55.4652 81.8769C54.1395 80.7363 54.1395 78.6709 55.4652 77.5611C56.5752 76.4513 58.4559 76.4513 59.5658 77.5611L85.2483 103.055L85.9882 103.98C82.2576 107.155 79.822 112.026 79.4212 117.452L78.3112 118.407L79.4212 119.517C80.007 128.519 86.5432 135.825 95.1759 137.52L90.3046 146.707L99.4923 141.836C100.972 149.697 107.354 156.047 115.586 157.188L112.041 160.733V160.733Z" fill="white"/>
<path fill-rule="evenodd" clip-rule="evenodd" d="M103.038 85.2372L77.5711 59.5889C76.4304 58.4483 76.4304 56.5678 77.5711 55.458C78.6811 54.1325 80.5618 54.1325 81.8567 55.458L105.288 78.8868L108.68 82.062C103.994 84.8673 100.417 89.738 99.4922 95.1636L95.3608 92.9132L96.2857 91.9884H96.4707L103.038 85.2372V85.2372Z" fill="white"/>
<path fill-rule="evenodd" clip-rule="evenodd" d="M67.6436 116.342L71.9292 112.026L59.3808 99.4794C58.0859 98.1846 56.2052 98.1846 55.0644 99.4794C53.7695 100.62 53.7695 102.47 55.0644 103.61L67.6436 116.157V116.342V116.342Z" fill="white"/>
<path fill-rule="evenodd" clip-rule="evenodd" d="M112.041 71.9506L116.172 67.6348L103.809 55.0881C102.483 53.9475 100.602 53.9475 99.4924 55.0881C98.1666 56.1979 98.1666 58.0784 99.4924 59.4039L112.041 71.9506Z" fill="white"/>
<path fill-rule="evenodd" clip-rule="evenodd" d="M177.249 159.438L151.751 133.759L145.03 140.695L181.38 177.226C182.675 178.366 182.675 180.216 181.38 181.357C180.24 182.651 178.359 182.651 177.064 181.357L140.714 145.011L136.212 149.512L134.887 148.186C136.212 146.306 136.952 144.056 137.507 141.836L146.695 146.707L141.824 137.52C147.25 136.38 151.936 133.019 154.773 128.334L156.068 129.659L157.394 130.769L181.565 155.123C182.86 156.232 182.86 158.298 181.565 159.438C180.425 160.548 178.544 160.548 177.249 159.438V159.438Z" fill="white"/>
<path fill-rule="evenodd" clip-rule="evenodd" d="M133.037 150.992C129.645 154.753 124.959 157.188 119.533 157.558L118.423 158.483L114.291 162.799L99.4924 177.596C98.1666 178.736 98.1666 180.802 99.4924 181.911C100.602 183.052 102.483 183.052 103.778 181.911L118.423 167.114L133.222 181.911C134.517 183.052 136.397 183.052 137.507 181.911C138.648 180.802 138.648 178.736 137.507 177.596L122.708 162.799L129.645 156.047L155.143 181.542C156.253 182.651 158.133 182.651 159.428 181.542C160.569 180.401 160.569 178.551 159.428 177.226L135.472 153.242L133.037 150.992V150.992Z" fill="white"/>
<path fill-rule="evenodd" clip-rule="evenodd" d="M181.565 77.5611C182.86 78.6709 182.86 80.7363 181.565 81.8769L158.318 105.09L154.187 100.805L177.249 77.5611C178.544 76.4513 180.424 76.4513 181.565 77.5611V77.5611Z" fill="white"/>
<path fill-rule="evenodd" clip-rule="evenodd" d="M109.79 78.486L133.222 55.0881C134.517 53.9475 136.397 53.9475 137.507 55.0881C138.648 56.1979 138.648 58.0784 137.507 59.4039L122.708 74.0161L140.714 91.9884L177.064 55.458C178.359 54.3174 180.239 54.3174 181.349 55.458C182.675 56.7528 182.675 58.6333 181.349 59.7739L144.999 96.3042L160.754 112.026L157.394 115.417C156.068 107.34 149.686 100.99 141.824 99.4794L146.695 90.2929L137.507 95.1636C135.842 86.5628 128.535 79.9965 119.533 79.4417L118.392 78.301L117.282 79.4417C115.401 79.6266 113.521 79.9965 111.856 80.5514L109.79 78.486V78.486Z" fill="white"/>
<path fill-rule="evenodd" clip-rule="evenodd" d="M221.461 15.5368H15.5389V221.432H221.461V15.5368V15.5368ZM13.2882 10.8511H225.962V225.933H10.8525V10.8511H13.2882V10.8511Z" fill="white"/>
<path fill-rule="evenodd" clip-rule="evenodd" d="M136.212 98.3696V98.9245L136.397 99.2944V99.6644V100.219C136.397 99.6644 136.397 99.1095 136.212 98.3696V98.3696Z" fill="white"/>
<path fill-rule="evenodd" clip-rule="evenodd" d="M99.8623 136.38H99.3074L98.9375 136.195H98.3518C98.9375 136.38 99.6774 136.38 100.232 136.38H100.602V136.75V136.565V136.38H100.232H99.8623V136.38Z" fill="white"/>
<path fill-rule="evenodd" clip-rule="evenodd" d="M100.788 138.445L100.603 138.075V137.705V137.52V137.151V136.75C100.603 137.335 100.603 137.89 100.788 138.445Z" fill="white"/>
<path fill-rule="evenodd" clip-rule="evenodd" d="M136.397 137.151V137.52V137.705L136.212 138.075V138.445C136.397 137.89 136.397 137.335 136.397 136.75V137.151Z" fill="white"/>
<path fill-rule="evenodd" clip-rule="evenodd" d="M138.463 136.195H138.093L137.692 136.38H137.137H136.767H136.397V136.565V136.75V136.38H136.767C137.322 136.38 137.908 136.38 138.463 136.195V136.195Z" fill="white"/>
<path d="M523.953 75.2991H527.421L536.45 98.5266H532.59L530.136 92.2126H521.173L518.752 98.5266H514.859L523.953 75.2991ZM529.417 89.4973L525.687 79.323L521.827 89.4973H529.417ZM536.956 86.7493C536.956 85.3316 537.207 83.9467 537.709 82.5945C538.21 81.2205 538.941 79.9773 539.9 78.865C540.882 77.7309 542.071 76.8367 543.466 76.1824C544.862 75.5063 546.443 75.1682 548.21 75.1682C550.304 75.1682 552.114 75.648 553.641 76.6077C555.167 77.5455 556.302 78.7559 557.043 80.239L554.164 82.1692C553.728 81.2314 553.172 80.4898 552.496 79.9446C551.841 79.3993 551.122 79.0177 550.337 78.7996C549.573 78.5815 548.821 78.4724 548.079 78.4724C546.858 78.4724 545.789 78.7232 544.873 79.2249C543.957 79.7047 543.183 80.3481 542.55 81.155C541.94 81.962 541.471 82.8671 541.144 83.8704C540.838 84.8736 540.686 85.8769 540.686 86.8801C540.686 87.9924 540.871 89.072 541.242 90.1189C541.613 91.144 542.125 92.06 542.779 92.8669C543.455 93.6521 544.252 94.2737 545.168 94.7317C546.084 95.1897 547.087 95.4187 548.177 95.4187C548.919 95.4187 549.693 95.2878 550.5 95.0261C551.307 94.7644 552.049 94.3609 552.725 93.8157C553.423 93.2486 553.968 92.5071 554.36 91.5911L557.403 93.325C556.923 94.4809 556.171 95.4623 555.146 96.2693C554.142 97.0763 553.008 97.6869 551.743 98.1013C550.5 98.5157 549.268 98.7229 548.046 98.7229C546.411 98.7229 544.917 98.3848 543.565 97.7087C542.212 97.0108 541.045 96.0948 540.064 94.9607C539.083 93.8048 538.319 92.518 537.774 91.1003C537.229 89.6609 536.956 88.2105 536.956 86.7493ZM559.032 86.7493C559.032 85.3316 559.283 83.9467 559.785 82.5945C560.286 81.2205 561.017 79.9773 561.977 78.865C562.958 77.7309 564.147 76.8367 565.543 76.1824C566.938 75.5063 568.52 75.1682 570.286 75.1682C572.38 75.1682 574.19 75.648 575.717 76.6077C577.244 77.5455 578.378 78.7559 579.119 80.239L576.24 82.1692C575.804 81.2314 575.248 80.4898 574.572 79.9446C573.918 79.3993 573.198 79.0177 572.413 78.7996C571.649 78.5815 570.897 78.4724 570.155 78.4724C568.934 78.4724 567.865 78.7232 566.949 79.2249C566.033 79.7047 565.259 80.3481 564.626 81.155C564.016 81.962 563.547 82.8671 563.22 83.8704C562.914 84.8736 562.762 85.8769 562.762 86.8801C562.762 87.9924 562.947 89.072 563.318 90.1189C563.689 91.144 564.201 92.06 564.855 92.8669C565.532 93.6521 566.328 94.2737 567.244 94.7317C568.16 95.1897 569.163 95.4187 570.253 95.4187C570.995 95.4187 571.769 95.2878 572.576 95.0261C573.383 94.7644 574.125 94.3609 574.801 93.8157C575.499 93.2486 576.044 92.5071 576.437 91.5911L579.479 93.325C578.999 94.4809 578.247 95.4623 577.222 96.2693C576.218 97.0763 575.084 97.6869 573.819 98.1013C572.576 98.5157 571.344 98.7229 570.123 98.7229C568.487 98.7229 566.993 98.3848 565.641 97.7087C564.288 97.0108 563.122 96.0948 562.14 94.9607C561.159 93.8048 560.395 92.518 559.85 91.1003C559.305 89.6609 559.032 88.2105 559.032 86.7493ZM592.231 98.6902C590.552 98.6902 589.036 98.363 587.684 97.7087C586.332 97.0544 585.165 96.1711 584.184 95.0588C583.202 93.9247 582.439 92.6598 581.894 91.2639C581.37 89.8463 581.108 88.3959 581.108 86.9128C581.108 85.3643 581.392 83.8922 581.959 82.4963C582.526 81.0787 583.311 79.8246 584.314 78.7341C585.318 77.6218 586.495 76.7494 587.848 76.117C589.222 75.4627 590.705 75.1355 592.297 75.1355C593.954 75.1355 595.459 75.4736 596.812 76.1497C598.186 76.8258 599.352 77.7309 600.312 78.865C601.293 79.9991 602.046 81.2641 602.569 82.6599C603.115 84.0558 603.387 85.4843 603.387 86.9456C603.387 88.4941 603.104 89.9771 602.537 91.3948C601.991 92.7906 601.217 94.0447 600.214 95.157C599.211 96.2475 598.022 97.109 596.648 97.7415C595.296 98.3739 593.824 98.6902 592.231 98.6902ZM584.838 86.9128C584.838 88.0033 585.012 89.0611 585.361 90.0862C585.71 91.1112 586.201 92.0273 586.833 92.8342C587.488 93.6194 588.273 94.241 589.189 94.699C590.105 95.157 591.13 95.386 592.264 95.386C593.442 95.386 594.489 95.1461 595.405 94.6663C596.321 94.1864 597.084 93.5431 597.695 92.7361C598.327 91.9073 598.807 90.9913 599.134 89.988C599.461 88.963 599.625 87.9379 599.625 86.9128C599.625 85.8224 599.451 84.7755 599.102 83.7722C598.774 82.7472 598.284 81.842 597.629 81.0569C596.975 80.2499 596.19 79.6174 595.274 79.1594C594.38 78.7014 593.376 78.4724 592.264 78.4724C591.086 78.4724 590.04 78.7123 589.124 79.1921C588.208 79.672 587.433 80.3154 586.801 81.1223C586.168 81.9293 585.678 82.8344 585.329 83.8377C585.001 84.8409 584.838 85.866 584.838 86.9128ZM624.618 102.943V98.5266H607.181V75.2991H610.845V95.2878H621.215V75.2991H624.912V95.2878H627.856V102.943H624.618ZM631.752 98.5266V75.2991H635.417V93.3577L647.815 75.2991H651.251V98.5266H647.586V80.7625L635.318 98.5266H631.752ZM663.343 75.2991H666.81L675.84 98.5266H671.979L669.526 92.2126H660.562L658.141 98.5266H654.248L663.343 75.2991ZM668.806 89.4973L665.077 79.323L661.216 89.4973H668.806ZM696.149 102.943V98.5266H678.712V75.2991H682.376V95.2878H692.747V75.2991H696.444V95.2878H699.388V102.943H696.149ZM703.284 98.5266V75.2991H706.948V93.3577L719.347 75.2991H722.782V98.5266H719.118V80.7625L706.85 98.5266H703.284ZM727.514 98.5266L733.402 89.0066C731.876 88.5704 730.687 87.7525 729.836 86.553C728.986 85.3534 728.56 83.9358 728.56 82.3001C728.56 80.9697 728.877 79.781 729.509 78.7341C730.164 77.6873 731.069 76.8585 732.225 76.2478C733.38 75.6153 734.722 75.2991 736.248 75.2991H744.656V98.5266H740.992V89.4646H737.982C737.851 89.4646 737.71 89.4646 737.557 89.4646C737.426 89.4646 737.295 89.4646 737.164 89.4646L731.734 98.5266H727.514ZM736.641 86.2913H740.992V78.4724H736.739C735.91 78.4724 735.158 78.6251 734.482 78.9304C733.806 79.214 733.271 79.6392 732.879 80.2063C732.508 80.7734 732.323 81.4713 732.323 82.3001C732.323 83.1288 732.497 83.8377 732.846 84.4265C733.195 85.0154 733.686 85.4734 734.318 85.8005C734.973 86.1277 735.747 86.2913 736.641 86.2913ZM281.379 176.69C279.828 176.69 278.374 176.375 277.017 175.745C275.66 175.163 274.569 174.339 273.745 173.273C272.922 172.158 272.51 170.898 272.51 169.493C272.51 167.99 272.946 166.609 273.818 165.349C274.691 164.089 276.096 163.458 278.035 163.458C279.683 163.458 280.918 163.919 281.742 164.84C282.615 165.712 283.051 166.754 283.051 167.966C283.051 168.499 282.954 169.032 282.76 169.565C282.615 170.098 282.348 170.632 281.961 171.165C282.057 171.31 282.179 171.431 282.324 171.528C282.518 171.625 282.736 171.674 282.978 171.674C284.238 171.674 285.571 170.728 286.977 168.838C287.413 168.208 287.825 167.554 288.213 166.875C288.6 166.197 289.012 165.373 289.449 164.404C289.885 163.386 290.394 162.15 290.975 160.696C291.557 159.193 292.235 157.376 293.011 155.243C293.835 153.062 294.804 150.445 295.919 147.392C297.034 144.338 298.342 140.752 299.845 136.632C300.378 135.275 300.887 134.015 301.371 132.852C301.856 131.689 302.413 130.719 303.043 129.944L297.446 130.235V124.637H313.221V129.435C312.107 129.435 311.137 129.629 310.313 130.017C309.489 130.356 308.738 131.034 308.06 132.052C307.381 133.022 306.678 134.451 305.951 136.342L295.337 164.331C293.98 167.869 292.526 170.535 290.975 172.328C289.424 174.073 287.825 175.236 286.177 175.817C284.578 176.399 282.978 176.69 281.379 176.69ZM291.048 164.113L273.818 137.141C273.14 136.026 272.51 134.766 271.928 133.361C271.346 131.907 271.056 130.792 271.056 130.017L267.493 130.235V124.637H288.94V129.435C287.534 129.338 286.371 129.484 285.45 129.871C284.529 130.259 283.972 130.889 283.778 131.761C283.584 132.585 283.875 133.676 284.65 135.033L290.684 145.502C291.411 146.713 292.26 148.07 293.229 149.573C294.198 151.075 294.901 152.239 295.337 153.062L291.048 164.113ZM339.99 176.69C337.663 176.69 335.167 176.447 332.502 175.963C329.836 175.527 327.194 174.533 324.577 172.982C322.009 171.431 319.609 169.032 317.38 165.785L320.942 162.731C322.978 165.543 325.401 167.602 328.212 168.911C331.072 170.171 334.101 170.801 337.3 170.801C339.238 170.801 341.08 170.462 342.825 169.783C344.618 169.105 346.072 168.039 347.187 166.585C348.302 165.131 348.859 163.24 348.859 160.914C348.859 158.927 348.447 157.231 347.623 155.825C346.848 154.419 345.83 153.353 344.57 152.626C343.31 151.899 341.977 151.536 340.571 151.536H331.338V146.374H337.881C339.868 146.374 341.468 145.986 342.679 145.211C343.94 144.435 344.86 143.393 345.442 142.085C346.024 140.728 346.314 139.225 346.314 137.577C346.314 134.572 345.636 132.343 344.279 130.889C342.922 129.435 340.91 128.708 338.245 128.708C335.046 128.708 332.502 129.75 330.611 131.834C328.77 133.87 327.316 136.899 326.249 140.922H321.524V123.983H327.122L326.831 127.254C328.721 126.285 330.369 125.534 331.775 125C333.18 124.419 334.537 124.031 335.846 123.837C337.203 123.595 338.729 123.474 340.426 123.474C343.915 123.377 346.896 123.886 349.368 125C351.888 126.067 353.803 127.569 355.111 129.508C356.42 131.446 357.074 133.627 357.074 136.051C357.074 138.862 356.153 141.309 354.311 143.393C352.47 145.429 349.901 146.956 346.605 147.973V148.192C351.064 148.87 354.457 150.324 356.783 152.554C359.158 154.735 360.345 157.546 360.345 160.987C360.345 163.41 359.74 165.615 358.528 167.602C357.365 169.541 355.79 171.213 353.803 172.619C351.864 173.976 349.683 174.993 347.26 175.672C344.885 176.399 342.461 176.738 339.99 176.69ZM403.632 141.067C403.632 138.45 403.268 136.293 402.541 134.597C401.814 132.852 400.772 131.568 399.415 130.744C398.107 129.871 396.532 129.459 394.69 129.508H391.2V163.604C391.2 164.912 391.176 166.173 391.128 167.384C391.079 168.596 391.006 169.517 390.909 170.147C391.733 170.05 392.775 170.001 394.035 170.001C395.344 169.953 396.241 169.929 396.725 169.929V175.527H375.497V170.728C376.612 170.68 377.533 170.535 378.26 170.292C379.035 170.05 379.617 169.493 380.004 168.62C380.441 167.748 380.659 166.342 380.659 164.404V129.58H377.315C374.552 129.629 372.371 130.574 370.772 132.416C369.172 134.257 368.373 137.141 368.373 141.067H363.574L363.938 124.637H407.994L408.43 141.067H403.632ZM438.047 158.006C438.047 155.97 437.732 154.516 437.102 153.644C436.472 152.723 435.6 152.142 434.485 151.899C433.419 151.657 432.231 151.56 430.923 151.608L429.032 151.681V163.604C429.032 164.912 429.008 166.148 428.96 167.312C428.911 168.475 428.839 169.371 428.742 170.001H438.483C439.937 170.001 441.343 169.686 442.7 169.056C444.057 168.378 445.172 167.287 446.044 165.785C446.917 164.234 447.353 162.15 447.353 159.533H452.078L451.715 175.527H413.329V170.728C414.444 170.68 415.365 170.535 416.092 170.292C416.867 170.05 417.449 169.493 417.837 168.62C418.273 167.748 418.491 166.342 418.491 164.404V136.56C418.491 135.251 418.515 133.991 418.564 132.779C418.661 131.568 418.733 130.647 418.782 130.017C418.006 130.065 417.037 130.114 415.874 130.162C414.711 130.162 413.862 130.186 413.329 130.235V124.637H449.679L450.115 138.741H445.317C445.317 136.075 444.857 134.064 443.936 132.707C443.015 131.349 441.876 130.453 440.519 130.017C439.162 129.532 437.829 129.314 436.52 129.362L433.903 129.435C432.885 129.435 432.013 129.58 431.286 129.871C430.559 130.114 430.002 130.695 429.614 131.616C429.226 132.488 429.032 133.87 429.032 135.76V146.665H437.538L437.247 140.34H442.845V158.006H438.047ZM458.696 175.527V170.728C459.81 170.68 460.731 170.535 461.458 170.292C462.234 170.05 462.815 169.493 463.203 168.62C463.639 167.748 463.857 166.342 463.857 164.404V136.56C463.857 135.251 463.881 133.991 463.93 132.779C464.027 131.568 464.1 130.647 464.148 130.017C463.373 130.065 462.403 130.114 461.24 130.162C460.077 130.162 459.229 130.186 458.696 130.235V124.637H479.56V129.435C478.494 129.484 477.573 129.629 476.798 129.871C476.022 130.114 475.416 130.671 474.98 131.543C474.593 132.367 474.399 133.773 474.399 135.76V146.81H479.633L485.231 137.287C486.055 135.833 486.927 134.379 487.848 132.925C488.769 131.471 489.544 130.477 490.174 129.944C489.399 129.992 488.575 130.041 487.703 130.089C486.83 130.138 486.128 130.186 485.594 130.235V124.637H503.406V129.435C502.34 129.484 501.176 129.677 499.916 130.017C498.705 130.356 497.444 131.034 496.136 132.052C494.827 133.07 493.494 134.669 492.137 136.85L485.158 148.046C486.128 148.676 486.976 149.355 487.703 150.082C488.478 150.76 489.157 151.512 489.738 152.335L497.226 162.877C498.196 164.234 499.189 165.518 500.207 166.73C501.273 167.893 502.364 168.838 503.479 169.565C504.593 170.292 505.684 170.68 506.75 170.728V175.527H495.554C495.167 175.478 494.536 175.042 493.664 174.218C492.792 173.394 491.871 172.401 490.901 171.237C489.932 170.074 489.108 169.032 488.43 168.111L481.232 157.643C480.602 156.722 479.9 155.777 479.124 154.807C478.397 153.838 477.694 153.111 477.016 152.626H474.399V163.604C474.399 164.912 474.374 166.173 474.326 167.384C474.278 168.596 474.205 169.517 474.108 170.147C474.883 170.05 475.853 170.001 477.016 170.001C478.228 169.953 479.076 169.929 479.56 169.929V175.527H458.696ZM544.983 140.922C544.353 136.899 542.996 133.87 540.911 131.834C538.876 129.799 536.162 128.757 532.769 128.708C530.249 128.708 528.044 129.29 526.153 130.453C524.263 131.616 522.688 133.167 521.428 135.106C520.216 137.044 519.295 139.25 518.665 141.721C518.084 144.193 517.793 146.738 517.793 149.355C517.793 153.523 518.375 157.231 519.538 160.478C520.749 163.677 522.494 166.197 524.772 168.039C527.05 169.88 529.813 170.801 533.06 170.801C536.113 170.801 539.142 170.026 542.147 168.475C545.152 166.875 547.673 164.67 549.708 161.859L553.198 165.058C550.823 168.305 548.327 170.777 545.71 172.473C543.092 174.121 540.524 175.236 538.003 175.817C535.532 176.399 533.302 176.69 531.315 176.69C527.583 176.69 524.191 176.036 521.137 174.727C518.084 173.37 515.442 171.528 513.213 169.202C511.032 166.827 509.336 164.089 508.124 160.987C506.961 157.836 506.379 154.444 506.379 150.809C506.379 147.513 506.912 144.242 507.979 140.994C509.045 137.747 510.62 134.815 512.704 132.198C514.837 129.532 517.502 127.424 520.701 125.873C523.9 124.273 527.607 123.474 531.824 123.474C533.714 123.474 535.774 123.789 538.003 124.419C540.281 125 542.414 125.873 544.401 127.036L544.11 123.983H549.708V140.922H544.983ZM595.107 141.067C595.107 138.45 594.744 136.293 594.017 134.597C593.29 132.852 592.248 131.568 590.891 130.744C589.582 129.871 588.007 129.459 586.165 129.508H582.676V163.604C582.676 164.912 582.651 166.173 582.603 167.384C582.555 168.596 582.482 169.517 582.385 170.147C583.209 170.05 584.251 170.001 585.511 170.001C586.82 169.953 587.716 169.929 588.201 169.929V175.527H566.973V170.728C568.087 170.68 569.008 170.535 569.735 170.292C570.511 170.05 571.092 169.493 571.48 168.62C571.916 167.748 572.134 166.342 572.134 164.404V129.58H568.79C566.027 129.629 563.846 130.574 562.247 132.416C560.648 134.257 559.848 137.141 559.848 141.067H555.05L555.413 124.637H599.469L599.905 141.067H595.107ZM625.67 129.435C624.603 129.484 623.682 129.629 622.907 129.871C622.131 130.114 621.526 130.671 621.089 131.543C620.702 132.367 620.508 133.773 620.508 135.76V163.604C620.508 164.912 620.484 166.173 620.435 167.384C620.387 168.596 620.314 169.517 620.217 170.147C620.993 170.05 621.962 170.001 623.125 170.001C624.337 169.953 625.185 169.929 625.67 169.929V175.527H604.805V170.728C605.919 170.68 606.84 170.535 607.567 170.292C608.343 170.05 608.924 169.493 609.312 168.62C609.748 167.748 609.966 166.342 609.966 164.404V136.56C609.966 135.251 609.991 133.991 610.039 132.779C610.136 131.568 610.209 130.647 610.257 130.017C609.482 130.065 608.512 130.114 607.349 130.162C606.186 130.162 605.338 130.186 604.805 130.235V124.637H625.67V129.435ZM657.076 129.435C656.01 129.484 655.089 129.629 654.313 129.871C653.538 130.114 652.932 130.671 652.496 131.543C652.108 132.367 651.914 133.773 651.914 135.76V163.604C651.914 164.912 651.89 166.173 651.841 167.384C651.793 168.596 651.72 169.517 651.623 170.147C652.399 170.05 653.368 170.001 654.531 170.001C655.743 169.953 656.591 169.929 657.076 169.929V175.527H636.211V170.728C637.326 170.68 638.247 170.535 638.974 170.292C639.749 170.05 640.331 169.493 640.718 168.62C641.155 167.748 641.373 166.342 641.373 164.404V136.56C641.373 135.251 641.397 133.991 641.445 132.779C641.542 131.568 641.615 130.647 641.663 130.017C640.888 130.065 639.919 130.114 638.755 130.162C637.592 130.162 636.744 130.186 636.211 130.235V124.637H657.076V129.435ZM646.971 126.818L650.46 130.307L614.183 173.418L610.475 169.711L646.971 126.818ZM670.913 176.69C668.296 176.69 666.188 176.132 664.588 175.018C663.037 173.903 662.262 172.304 662.262 170.22C662.262 168.523 662.722 167.045 663.643 165.785C664.612 164.476 666.139 163.822 668.223 163.822C669.92 163.822 671.155 164.282 671.931 165.203C672.706 166.124 673.094 167.239 673.094 168.547C673.094 169.371 672.9 170.05 672.513 170.583C672.755 170.728 673.118 170.801 673.603 170.801C674.282 170.801 675.081 170.195 676.002 168.984C676.923 167.772 677.82 165.882 678.692 163.313C679.613 160.696 680.413 157.352 681.091 153.281C681.77 149.161 682.182 144.217 682.327 138.45L682.545 130.017L680.728 130.089L674.185 130.235V124.637H714.315V129.435C713.249 129.484 712.328 129.629 711.552 129.871C710.777 130.114 710.171 130.671 709.735 131.543C709.347 132.367 709.153 133.773 709.153 135.76V163.604C709.153 164.912 709.129 166.173 709.08 167.384C709.032 168.596 708.959 169.517 708.862 170.147C709.686 170.05 710.68 170.001 711.843 170.001C713.006 169.953 713.83 169.929 714.315 169.929V175.527H693.45V170.728C694.565 170.68 695.486 170.535 696.213 170.292C696.988 170.05 697.57 169.493 697.957 168.62C698.394 167.748 698.612 166.342 698.612 164.404V130.089L692.796 130.307C691.148 130.356 689.936 130.695 689.161 131.325C688.385 131.907 687.973 132.997 687.925 134.597C687.779 140.849 687.367 146.326 686.689 151.027C686.059 155.728 685.211 159.727 684.144 163.022C683.078 166.27 681.842 168.911 680.437 170.947C679.031 172.934 677.505 174.388 675.857 175.309C674.257 176.229 672.609 176.69 670.913 176.69ZM742.458 129.435C741.391 129.484 740.47 129.629 739.695 129.871C738.919 130.114 738.314 130.671 737.877 131.543C737.49 132.367 737.296 133.773 737.296 135.76V145.938L741.294 145.792C745.656 145.647 749.194 145.986 751.908 146.81C754.671 147.634 756.779 148.797 758.233 150.3C759.736 151.802 760.778 153.499 761.359 155.389C761.941 157.231 762.232 159.121 762.232 161.059C762.232 164.21 761.456 166.875 759.905 169.056C758.403 171.189 756.319 172.812 753.653 173.927C750.988 174.993 747.958 175.527 744.566 175.527H721.593V170.728C722.707 170.68 723.628 170.535 724.355 170.292C725.131 170.05 725.712 169.493 726.1 168.62C726.536 167.748 726.754 166.342 726.754 164.404V136.56C726.754 135.251 726.779 133.991 726.827 132.779C726.924 131.568 726.997 130.647 727.045 130.017C726.27 130.065 725.3 130.114 724.137 130.162C722.974 130.162 722.126 130.186 721.593 130.235V124.637H742.458V129.435ZM737.296 163.967C737.296 165.276 737.272 166.512 737.223 167.675C737.175 168.838 737.102 169.735 737.005 170.365C737.587 170.365 738.168 170.365 738.75 170.365C739.38 170.365 739.986 170.365 740.567 170.365C741.149 170.316 741.731 170.292 742.312 170.292C745.269 170.147 747.401 169.202 748.71 167.457C750.067 165.664 750.745 163.337 750.745 160.478C750.745 158.054 750.333 156.164 749.509 154.807C748.734 153.45 747.643 152.481 746.238 151.899C744.832 151.318 743.209 151.027 741.367 151.027C740.688 151.027 740.01 151.027 739.331 151.027C738.653 151.027 737.974 151.075 737.296 151.172V163.967ZM767.669 175.527V170.728C768.784 170.68 769.705 170.535 770.432 170.292C771.207 170.05 771.789 169.493 772.176 168.62C772.612 167.748 772.831 166.342 772.831 164.404V136.56C772.831 135.251 772.855 133.991 772.903 132.779C773 131.568 773.073 130.647 773.121 130.017C772.346 130.065 771.377 130.114 770.213 130.162C769.05 130.162 768.202 130.186 767.669 130.235V124.637H817.977V129.435C816.911 129.484 815.99 129.629 815.214 129.871C814.439 130.114 813.833 130.671 813.397 131.543C813.009 132.367 812.815 133.773 812.815 135.76V163.604C812.815 164.912 812.791 166.173 812.743 167.384C812.694 168.596 812.622 169.517 812.525 170.147C813.3 170.05 814.269 170.001 815.433 170.001C816.644 169.953 817.492 169.929 817.977 169.929V175.527H797.112V170.728C798.227 170.68 799.148 170.535 799.875 170.292C800.65 170.05 801.232 169.493 801.62 168.62C802.056 167.748 802.274 166.342 802.274 164.404V130.089L788.388 130.307C787.322 130.356 786.401 130.501 785.626 130.744C784.899 130.986 784.341 131.543 783.954 132.416C783.566 133.288 783.372 134.694 783.372 136.632V163.604C783.372 164.912 783.348 166.173 783.299 167.384C783.251 168.596 783.178 169.517 783.081 170.147C783.857 170.05 784.826 170.001 785.989 170.001C787.201 169.953 788.049 169.929 788.534 169.929V175.527H767.669ZM825.246 170.728C826.361 170.68 827.282 170.535 828.009 170.292C828.784 170.05 829.366 169.493 829.754 168.62C830.19 167.748 830.408 166.342 830.408 164.404V136.56C830.408 135.251 830.432 133.991 830.481 132.779C830.578 131.568 830.65 130.647 830.699 130.017C829.923 130.065 828.954 130.114 827.791 130.162C826.628 130.162 825.78 130.186 825.246 130.235V124.637C828.688 124.588 832.129 124.564 835.57 124.564C839.011 124.564 842.452 124.54 845.893 124.491C850.158 124.443 853.866 125 857.016 126.164C860.215 127.327 862.663 129.12 864.359 131.543C866.104 133.967 866.928 137.117 866.831 140.994C866.782 142.933 866.322 144.847 865.449 146.738C864.577 148.579 863.293 150.276 861.596 151.827C859.9 153.329 857.767 154.565 855.199 155.534C852.63 156.504 849.625 157.037 846.184 157.134C845.118 157.182 844.173 157.206 843.349 157.206C842.573 157.206 841.773 157.182 840.95 157.134V163.531C840.95 164.888 840.925 166.173 840.877 167.384C840.828 168.596 840.756 169.517 840.659 170.147C841.192 170.098 841.87 170.074 842.694 170.074C843.518 170.026 844.318 170.001 845.093 170.001C845.917 169.953 846.499 169.929 846.838 169.929V175.527H825.246V170.728ZM840.95 151.681C841.483 151.73 842.016 151.778 842.549 151.827C843.082 151.875 843.639 151.899 844.221 151.899C846.887 151.899 849.043 151.463 850.691 150.591C852.388 149.67 853.624 148.361 854.399 146.665C855.174 144.92 855.562 142.812 855.562 140.34C855.562 137.917 855.223 135.978 854.544 134.524C853.914 133.07 853.09 132.004 852.073 131.325C851.055 130.598 849.989 130.138 848.874 129.944C847.759 129.702 846.741 129.58 845.82 129.58C844.803 129.58 843.93 129.702 843.203 129.944C842.476 130.186 841.919 130.719 841.531 131.543C841.143 132.367 840.95 133.627 840.95 135.324V151.681ZM895.887 176.69C891.282 176.69 887.357 175.914 884.109 174.363C880.91 172.812 878.318 170.753 876.33 168.184C874.343 165.567 872.889 162.683 871.968 159.533C871.048 156.382 870.587 153.232 870.587 150.082C870.587 147.028 871.096 143.951 872.114 140.849C873.18 137.699 874.755 134.815 876.839 132.198C878.972 129.58 881.637 127.472 884.836 125.873C888.035 124.273 891.791 123.474 896.105 123.474C900.515 123.474 904.32 124.273 907.519 125.873C910.717 127.472 913.335 129.605 915.37 132.27C917.406 134.888 918.908 137.747 919.877 140.849C920.895 143.951 921.404 147.028 921.404 150.082C921.404 153.087 920.871 156.14 919.805 159.242C918.787 162.344 917.212 165.227 915.079 167.893C912.995 170.51 910.354 172.643 907.155 174.291C903.956 175.89 900.2 176.69 895.887 176.69ZM896.686 171.383C899.207 171.383 901.315 170.777 903.011 169.565C904.708 168.305 906.065 166.681 907.082 164.694C908.1 162.707 908.827 160.55 909.263 158.224C909.7 155.849 909.918 153.547 909.918 151.318C909.918 147.973 909.627 144.92 909.045 142.157C908.464 139.395 907.567 137.02 906.355 135.033C905.144 132.997 903.593 131.446 901.703 130.38C899.861 129.265 897.68 128.732 895.16 128.781C892.688 128.829 890.604 129.508 888.907 130.816C887.211 132.076 885.854 133.724 884.836 135.76C883.818 137.747 883.091 139.928 882.655 142.303C882.219 144.678 882.001 146.98 882.001 149.209C882.001 151.487 882.243 153.911 882.728 156.479C883.261 159.048 884.085 161.471 885.2 163.749C886.315 166.027 887.817 167.869 889.707 169.274C891.597 170.68 893.924 171.383 896.686 171.383ZM953.578 176.254C951.93 172.231 950.282 168.232 948.634 164.258C947.035 160.284 945.411 156.31 943.763 152.335C943.376 151.415 942.867 150.13 942.237 148.482C941.655 146.786 941.025 144.847 940.346 142.666C939.716 140.485 939.135 138.232 938.602 135.905C938.699 138.619 938.771 141.188 938.82 143.611C938.868 145.986 938.868 148.264 938.82 150.445C938.82 151.512 938.82 152.602 938.82 153.717C938.82 154.831 938.796 155.946 938.747 157.061C938.747 158.127 938.747 159.218 938.747 160.332C938.747 161.399 938.747 162.489 938.747 163.604C938.747 164.912 938.699 166.173 938.602 167.384C938.553 168.596 938.48 169.517 938.384 170.147C939.207 170.05 940.201 170.001 941.364 170.001C942.576 169.953 943.424 169.929 943.909 169.929V175.527H927.333V170.728C928.448 170.68 929.369 170.535 930.096 170.292C930.871 170.05 931.453 169.493 931.841 168.62C932.277 167.748 932.495 166.342 932.495 164.404L932.931 136.56C932.98 135.251 933.028 133.991 933.076 132.779C933.125 131.568 933.173 130.647 933.222 130.017C932.446 130.065 931.477 130.114 930.314 130.162C929.151 130.162 928.303 130.186 927.769 130.235V124.637H943.836L954.814 152.772C955.25 153.886 955.735 155.195 956.268 156.697C956.801 158.151 957.31 159.581 957.794 160.987C958.279 162.344 958.643 163.434 958.885 164.258H958.958C959.588 162.562 960.169 160.914 960.702 159.315C961.235 157.715 961.793 156.164 962.374 154.662C964.265 149.621 966.131 144.605 967.972 139.613C969.862 134.621 971.753 129.629 973.643 124.637H990.436V129.435C989.37 129.484 988.425 129.629 987.601 129.871C986.777 130.114 986.147 130.671 985.711 131.543C985.323 132.367 985.154 133.773 985.202 135.76L986.293 163.604C986.39 164.912 986.39 166.173 986.293 167.384C986.196 168.596 986.099 169.517 986.002 170.147C986.826 170.05 987.819 170.001 988.982 170.001C990.194 169.953 991.042 169.929 991.527 169.929V175.527H971.316V170.728C972.431 170.68 973.376 170.535 974.152 170.292C974.976 170.05 975.582 169.493 975.969 168.62C976.405 167.748 976.575 166.342 976.478 164.404L975.897 148.991C975.897 148.41 975.848 147.416 975.751 146.011C975.654 144.557 975.557 142.981 975.46 141.285C975.412 139.54 975.363 137.917 975.315 136.414C975.17 136.753 975.024 137.093 974.879 137.432C974.733 137.723 974.612 138.038 974.515 138.377L960.339 176.254H953.578Z" fill="#128CDB"/>
</svg>
