<svg width="237" height="312" viewBox="0 0 237 312" fill="none" xmlns="http://www.w3.org/2000/svg">
<path fill-rule="evenodd" clip-rule="evenodd" d="M237 237H0V0H237V237Z" fill="#128CDB"/>
<path fill-rule="evenodd" clip-rule="evenodd" d="M96.8717 100.99C88.6089 102.47 82.4426 109.776 82.4426 118.408C82.4426 127.224 88.6089 134.715 96.8717 136.01L92.3703 144.457L100.972 139.956C100.972 139.956 103.593 154.568 118.423 154.568C127.21 154.568 134.517 148.372 136.027 140.141L144.629 144.457L140.128 136.01C148.391 134.499 154.557 127.193 154.557 118.408C154.557 109.776 148.576 102.47 139.943 100.99L144.629 92.3585L136.027 96.8593C133.962 88.4126 127.395 82.4321 118.423 82.4321C103.809 82.4321 100.972 96.8593 100.972 96.8593L92.3703 92.3585L96.8717 100.99V100.99ZM131.526 131.509C131.526 140.141 130.385 149.327 118.423 149.327C109.235 149.327 103.038 140.141 105.474 131.509C96.8717 133.944 87.684 127.779 87.684 118.408C87.684 109.036 97.0567 103.056 105.474 105.491C103.038 96.8593 109.235 87.6728 118.423 87.6728C127.765 87.6728 133.962 96.8593 131.526 105.491C139.943 103.056 149.316 109.036 149.316 118.408C149.316 127.779 140.128 133.944 131.526 131.509Z" fill="white"/>
<path fill-rule="evenodd" clip-rule="evenodd" d="M108.865 108.851L118.423 113.907L128.166 108.851L122.893 118.408L128.166 128.149L118.423 122.908L108.865 128.149L113.922 118.408L108.865 108.851Z" fill="white"/>
<path fill-rule="evenodd" clip-rule="evenodd" d="M181.935 99.4796C180.794 98.1849 178.729 98.1849 177.619 99.4796L162.82 114.277L158.503 118.408L157.578 119.517C157.393 121.583 156.993 123.463 156.253 125.159L158.318 127.224L162.82 122.723L177.619 137.52C178.729 138.63 180.794 138.63 181.935 137.52C183.045 136.38 183.045 134.53 181.935 133.205L167.136 118.408L181.935 103.61C183.045 102.47 183.045 100.62 181.935 99.4796V99.4796Z" fill="white"/>
<path fill-rule="evenodd" clip-rule="evenodd" d="M95.176 99.4797L92.9253 95.3489L92.0004 96.3045L87.499 100.805L88.609 102.1C90.6746 100.805 92.9253 99.8497 95.176 99.4797Z" fill="white"/>
<path fill-rule="evenodd" clip-rule="evenodd" d="M136.212 82.8021L159.428 59.5891C160.569 58.4485 160.569 56.5681 159.428 55.4583C158.133 54.1327 156.252 54.1327 155.143 55.4583L131.896 78.4863L136.212 82.8021V82.8021Z" fill="white"/>
<path fill-rule="evenodd" clip-rule="evenodd" d="M89.7496 94.054L91.4145 92.3585L90.3045 90.2931L92.3702 91.4337L94.0351 89.7382L59.7507 55.4582C58.6408 54.3176 56.7601 54.3176 55.4652 55.4582C54.3244 56.753 54.3244 58.6334 55.4652 59.7741L89.7496 94.054V94.054Z" fill="white"/>
<path fill-rule="evenodd" clip-rule="evenodd" d="M112.041 160.733L107.354 156.048L81.8568 181.542C80.5619 182.651 78.6812 182.651 77.5713 181.542C76.4305 180.401 76.4305 178.551 77.5713 177.226L103.038 151.763L96.2858 145.011L59.7508 181.357C58.6409 182.651 56.7602 182.651 55.4652 181.357C54.3245 180.216 54.3245 178.366 55.4652 177.226L92.0003 140.696L85.2483 133.759L59.5658 159.439C58.4559 160.548 56.5752 160.548 55.4652 159.439C54.1395 158.298 54.1395 156.233 55.4652 155.123L80.9319 129.659L74.1798 122.723L59.3808 137.52C58.0859 138.63 56.2052 138.63 55.0644 137.52C53.7695 136.38 53.7695 134.53 55.0644 133.205L80.9319 107.34L55.4652 81.8772C54.1395 80.7365 54.1395 78.6711 55.4652 77.5613C56.5752 76.4516 58.4559 76.4516 59.5658 77.5613L85.2483 103.055L85.9882 103.98C82.2576 107.156 79.822 112.026 79.4212 117.452L78.3112 118.407L79.4212 119.517C80.007 128.519 86.5432 135.825 95.1759 137.52L90.3046 146.707L99.4923 141.836C100.972 149.697 107.354 156.048 115.586 157.188L112.041 160.733V160.733Z" fill="white"/>
<path fill-rule="evenodd" clip-rule="evenodd" d="M103.038 85.2374L77.5711 59.5891C76.4304 58.4485 76.4304 56.5681 77.5711 55.4583C78.6811 54.1327 80.5618 54.1327 81.8567 55.4583L105.288 78.887L108.68 82.0622C103.994 84.8675 100.417 89.7382 99.4922 95.1638L95.3608 92.9134L96.2857 91.9886H96.4707L103.038 85.2374V85.2374Z" fill="white"/>
<path fill-rule="evenodd" clip-rule="evenodd" d="M67.6436 116.342L71.9292 112.026L59.3808 99.4796C58.0859 98.1849 56.2052 98.1849 55.0644 99.4796C53.7695 100.62 53.7695 102.47 55.0644 103.61L67.6436 116.157V116.342V116.342Z" fill="white"/>
<path fill-rule="evenodd" clip-rule="evenodd" d="M112.041 71.9509L116.172 67.6351L103.809 55.0884C102.483 53.9478 100.602 53.9478 99.4924 55.0884C98.1666 56.1981 98.1666 58.0786 99.4924 59.4042L112.041 71.9509Z" fill="white"/>
<path fill-rule="evenodd" clip-rule="evenodd" d="M177.249 159.439L151.751 133.76L145.03 140.696L181.38 177.226C182.675 178.367 182.675 180.216 181.38 181.357C180.24 182.652 178.359 182.652 177.064 181.357L140.714 145.012L136.212 149.512L134.887 148.187C136.212 146.306 136.952 144.056 137.507 141.836L146.695 146.707L141.824 137.521C147.25 136.38 151.936 133.02 154.773 128.334L156.068 129.66L157.394 130.769L181.565 155.123C182.86 156.233 182.86 158.298 181.565 159.439C180.425 160.548 178.544 160.548 177.249 159.439V159.439Z" fill="white"/>
<path fill-rule="evenodd" clip-rule="evenodd" d="M133.037 150.992C129.645 154.753 124.959 157.188 119.533 157.558L118.423 158.483L114.291 162.799L99.4924 177.596C98.1666 178.736 98.1666 180.802 99.4924 181.912C100.602 183.052 102.483 183.052 103.778 181.912L118.423 167.115L133.222 181.912C134.517 183.052 136.397 183.052 137.507 181.912C138.648 180.802 138.648 178.736 137.507 177.596L122.708 162.799L129.645 156.048L155.143 181.542C156.253 182.652 158.133 182.652 159.428 181.542C160.569 180.401 160.569 178.552 159.428 177.226L135.472 153.242L133.037 150.992V150.992Z" fill="white"/>
<path fill-rule="evenodd" clip-rule="evenodd" d="M181.565 77.5613C182.86 78.6711 182.86 80.7365 181.565 81.8772L158.318 105.09L154.187 100.805L177.249 77.5613C178.544 76.4516 180.424 76.4516 181.565 77.5613V77.5613Z" fill="white"/>
<path fill-rule="evenodd" clip-rule="evenodd" d="M109.79 78.4863L133.222 55.0884C134.517 53.9478 136.397 53.9478 137.507 55.0884C138.648 56.1981 138.648 58.0786 137.507 59.4042L122.708 74.0163L140.714 91.9886L177.064 55.4583C178.359 54.3177 180.239 54.3177 181.349 55.4583C182.675 56.753 182.675 58.6335 181.349 59.7741L144.999 96.3044L160.754 112.026L157.394 115.417C156.068 107.341 149.686 100.99 141.824 99.4796L146.695 90.2931L137.507 95.1638C135.842 86.563 128.535 79.9968 119.533 79.4419L118.392 78.3013L117.282 79.4419C115.401 79.6269 113.521 79.9968 111.856 80.5517L109.79 78.4863V78.4863Z" fill="white"/>
<path fill-rule="evenodd" clip-rule="evenodd" d="M221.461 15.5369H15.5389V221.432H221.461V15.5369V15.5369ZM13.2882 10.8512H225.962V225.933H10.8525V10.8512H13.2882V10.8512Z" fill="white"/>
<path fill-rule="evenodd" clip-rule="evenodd" d="M136.212 98.3699V98.9248L136.397 99.2947V99.6646V100.22C136.397 99.6646 136.397 99.1097 136.212 98.3699V98.3699Z" fill="white"/>
<path fill-rule="evenodd" clip-rule="evenodd" d="M99.8623 136.38H99.3074L98.9375 136.195H98.3518C98.9375 136.38 99.6774 136.38 100.232 136.38H100.602V136.75V136.565V136.38H100.232H99.8623V136.38Z" fill="white"/>
<path fill-rule="evenodd" clip-rule="evenodd" d="M100.788 138.445L100.603 138.075V137.705V137.52V137.151V136.75C100.603 137.335 100.603 137.89 100.788 138.445Z" fill="white"/>
<path fill-rule="evenodd" clip-rule="evenodd" d="M136.397 137.151V137.52V137.705L136.212 138.075V138.445C136.397 137.89 136.397 137.335 136.397 136.75V137.151Z" fill="white"/>
<path fill-rule="evenodd" clip-rule="evenodd" d="M138.463 136.195H138.093L137.692 136.38H137.137H136.767H136.397V136.565V136.75V136.38H136.767C137.322 136.38 137.908 136.38 138.463 136.195V136.195Z" fill="white"/>
<path d="M36.0796 244.091H46.8431V277.152C46.8431 280.864 45.9565 284.112 44.1833 286.896C42.4267 289.68 39.9657 291.851 36.8005 293.409C33.6352 294.95 29.948 295.721 25.7387 295.721C21.5128 295.721 17.8173 294.95 14.652 293.409C11.4868 291.851 9.02586 289.68 7.26923 286.896C5.5126 284.112 4.63429 280.864 4.63429 277.152V244.091H15.3978V276.232C15.3978 278.171 15.8204 279.895 16.6655 281.403C17.5273 282.911 18.737 284.096 20.2948 284.957C21.8526 285.819 23.6672 286.25 25.7387 286.25C27.8268 286.25 29.6414 285.819 31.1826 284.957C32.7403 284.096 33.9418 282.911 34.787 281.403C35.6487 279.895 36.0796 278.171 36.0796 276.232V244.091ZM70.5519 295V288.612L95.9567 252.965H70.5022V244.091H109.479V250.479L84.0497 286.126H109.529V295H70.5519ZM131.249 252.965V244.091H173.06V252.965H157.474V295H146.835V252.965H131.249ZM222.963 258.732C222.764 256.727 221.911 255.169 220.403 254.059C218.895 252.949 216.848 252.393 214.263 252.393C212.506 252.393 211.023 252.642 209.813 253.139C208.604 253.62 207.676 254.291 207.029 255.153C206.4 256.014 206.085 256.992 206.085 258.086C206.052 258.997 206.242 259.793 206.656 260.472C207.087 261.152 207.676 261.74 208.421 262.237C209.167 262.718 210.029 263.14 211.007 263.505C211.984 263.853 213.028 264.151 214.139 264.4L218.712 265.494C220.933 265.991 222.971 266.654 224.828 267.482C226.684 268.311 228.291 269.33 229.65 270.54C231.009 271.75 232.061 273.175 232.807 274.815C233.569 276.456 233.959 278.337 233.975 280.458C233.959 283.574 233.163 286.275 231.589 288.562C230.031 290.832 227.777 292.597 224.828 293.857C221.894 295.099 218.356 295.721 214.213 295.721C210.103 295.721 206.524 295.091 203.475 293.832C200.442 292.572 198.072 290.708 196.365 288.239C194.675 285.753 193.788 282.679 193.705 279.016H204.121C204.237 280.723 204.726 282.148 205.587 283.292C206.466 284.419 207.634 285.272 209.092 285.852C210.567 286.416 212.233 286.697 214.089 286.697C215.912 286.697 217.494 286.432 218.837 285.902C220.196 285.372 221.248 284.634 221.994 283.69C222.739 282.745 223.112 281.66 223.112 280.433C223.112 279.29 222.773 278.329 222.093 277.55C221.43 276.771 220.453 276.108 219.16 275.561C217.884 275.014 216.318 274.517 214.462 274.07L208.918 272.678C204.626 271.634 201.237 270.001 198.752 267.781C196.266 265.56 195.031 262.569 195.048 258.807C195.031 255.724 195.851 253.031 197.509 250.728C199.182 248.424 201.478 246.626 204.394 245.334C207.311 244.041 210.625 243.395 214.337 243.395C218.116 243.395 221.414 244.041 224.231 245.334C227.065 246.626 229.269 248.424 230.843 250.728C232.418 253.031 233.23 255.7 233.279 258.732H222.963Z" fill="#128CDB"/>
</svg>
